<?xml version="1.0" encoding="UTF-8" standalone="no"?>
<!-- Created with Inkscape (http://www.inkscape.org/) -->

<svg
   width="1024mm"
   height="1024mm"
   viewBox="0 0 1024 1024"
   version="1.1"
   id="svg1"
   inkscape:version="1.3.2 (091e20e, 2023-11-25)"
   sodipodi:docname="icon.svg"
   inkscape:export-filename="icon.png"
   inkscape:export-xdpi="25.4"
   inkscape:export-ydpi="25.4"
   xmlns:inkscape="http://www.inkscape.org/namespaces/inkscape"
   xmlns:sodipodi="http://sodipodi.sourceforge.net/DTD/sodipodi-0.dtd"
   xmlns="http://www.w3.org/2000/svg"
   xmlns:svg="http://www.w3.org/2000/svg">
  <sodipodi:namedview
     id="namedview1"
     pagecolor="#ffffff"
     bordercolor="#000000"
     borderopacity="0.25"
     inkscape:showpageshadow="2"
     inkscape:pageopacity="0.0"
     inkscape:pagecheckerboard="0"
     inkscape:deskcolor="#d1d1d1"
     inkscape:document-units="mm"
     inkscape:zoom="0.06267295"
     inkscape:cx="2903.9641"
     inkscape:cy="3159.2577"
     inkscape:window-width="1472"
     inkscape:window-height="919"
     inkscape:window-x="0"
     inkscape:window-y="37"
     inkscape:window-maximized="0"
     inkscape:current-layer="g67" />
  <defs
     id="defs1">
    <rect
       x="137.25067"
       y="326.19316"
       width="272.71887"
       height="185.37753"
       id="rect6" />
    <rect
       x="107.17153"
       y="192.90876"
       width="1243.1898"
       height="1114.5839"
       id="rect3" />
    <rect
       x="150.04014"
       y="364.38321"
       width="1757.6131"
       height="1114.5839"
       id="rect2" />
    <rect
       x="849.40267"
       y="744.8608"
       width="614.18347"
       height="274.4224"
       id="rect1" />
  </defs>
  <g
     inkscape:label="圖層 1"
     inkscape:groupmode="layer"
     id="layer1">
    <text
       xml:space="preserve"
       transform="scale(0.26458333)"
       id="text1"
       style="font-size:48px;line-height:0.7;font-family:sans;-inkscape-font-specification:sans;text-align:center;white-space:pre;shape-inside:url(#rect1);display:inline;fill:#ffffff;stroke:#edff00;stroke-width:0" />
    <text
       xml:space="preserve"
       transform="scale(0.26458333)"
       id="text2"
       style="font-size:48px;line-height:0.7;font-family:sans;-inkscape-font-specification:sans;text-align:center;white-space:pre;shape-inside:url(#rect2);display:inline;fill:#ffffff;stroke:#edff00;stroke-width:0" />
    <text
       xml:space="preserve"
       transform="scale(0.26458333)"
       id="text3"
       style="font-size:48px;line-height:0.7;font-family:sans;-inkscape-font-specification:sans;text-align:center;white-space:pre;shape-inside:url(#rect3);display:inline;fill:#ffffff;stroke:#edff00;stroke-width:0" />
    <text
       xml:space="preserve"
       style="font-size:12.7px;line-height:0.7;font-family:sans;-inkscape-font-specification:sans;text-align:center;text-anchor:middle;fill:#ffffff;stroke:#edff00;stroke-width:0"
       x="187.14828"
       y="232.51758"
       id="text4"><tspan
         sodipodi:role="line"
         id="tspan4"
         style="stroke-width:0"
         x="187.14828"
         y="232.51758" /></text>
    <text
       xml:space="preserve"
       style="font-size:12.7px;line-height:0.7;font-family:sans;-inkscape-font-specification:sans;text-align:center;text-anchor:middle;fill:#000000;stroke:#edff00;stroke-width:0"
       x="103.24245"
       y="70.882881"
       id="text5"><tspan
         id="tspan5"
         style="fill:#000000;stroke-width:0"
         x="103.24245"
         y="70.882881"
         sodipodi:role="line" /></text>
    <text
       xml:space="preserve"
       transform="scale(0.26458333)"
       id="text6"
       style="font-size:48px;line-height:0.7;font-family:sans;-inkscape-font-specification:sans;text-align:center;white-space:pre;shape-inside:url(#rect6);display:inline;fill:#000000;stroke:#edff00;stroke-width:0" />
    <circle
       id="path10"
       style="fill:#696969;stroke:#edff00;stroke-width:0.264583"
       cx="702.54211"
       cy="342.87415"
       r="0" />
    <circle
       id="path15"
       style="fill:#696969;stroke:#edff00;stroke-width:0.264583"
       cx="656.84503"
       cy="369.27109"
       r="0" />
    <circle
       id="path25"
       style="fill:#696969;stroke:#edff00;stroke-width:0.264583"
       cx="993.43719"
       cy="176.46582"
       r="0" />
    <circle
       id="path30"
       style="fill:#696969;stroke:#edff00;stroke-width:0.264583"
       cx="105.34051"
       cy="469.56873"
       r="0" />
    <circle
       id="path32"
       style="fill:#696969;stroke:#edff00;stroke-width:0.264583"
       cx="258.8877"
       cy="676.67889"
       r="0" />
    <circle
       id="path34"
       style="fill:#696969;stroke:#edff00;stroke-width:0.264583"
       cx="830.12457"
       cy="579.39307"
       r="0" />
    <circle
       id="path35"
       style="fill:#696969;stroke:#edff00;stroke-width:0.264583"
       cx="470.96863"
       cy="426.92123"
       r="0" />
    <circle
       id="path36"
       style="fill:#696969;stroke:#edff00;stroke-width:0.264583"
       cx="579.39307"
       cy="742.02972"
       r="0" />
    <circle
       id="path37"
       style="fill:#696969;stroke:#edff00;stroke-width:0.264583"
       cx="443.86249"
       cy="379.48553"
       r="0" />
    <circle
       id="path38"
       style="fill:#696969;stroke:#edff00;stroke-width:0.264583"
       cx="416.75644"
       cy="704.75885"
       r="0" />
    <circle
       id="path39"
       style="fill:#696969;stroke:#edff00;stroke-width:0.264583"
       cx="650.54657"
       cy="735.25317"
       r="0" />
    <circle
       id="path41"
       style="fill:#696969;stroke:#edff00;stroke-width:0.264583"
       cx="260.8963"
       cy="857.23065"
       r="0" />
    <circle
       id="path43"
       style="fill:#696969;stroke:#edff00;stroke-width:0.264583"
       cx="134.28255"
       cy="453.20364"
       r="0" />
    <circle
       id="path48"
       style="fill:#696969;stroke:#edff00;stroke-width:0.264583"
       cx="845.5274"
       cy="1440.1339"
       r="0" />
    <circle
       id="path49"
       style="fill:#696969;stroke:#edff00;stroke-width:0.264583"
       cx="669.12238"
       cy="1298.7057"
       r="0" />
    <circle
       id="path51"
       style="fill:#696969;stroke:#edff00;stroke-width:0.264583"
       cx="745.15906"
       cy="1271.3326"
       r="0" />
    <circle
       id="path52"
       style="fill:#696969;stroke:#edff00;stroke-width:0.264583"
       cx="873.27026"
       cy="1195.5486"
       r="0" />
    <circle
       id="path53"
       style="fill:#696969;stroke:#edff00;stroke-width:0.264583"
       cx="553.11334"
       cy="389.22787"
       r="0" />
    <circle
       id="path54"
       style="fill:#696969;stroke:#edff00;stroke-width:0.264583"
       cx="662.93408"
       cy="488.47778"
       r="0" />
    <circle
       id="path57"
       style="fill:#696969;stroke:#edff00;stroke-width:0.264583"
       cx="357.68503"
       cy="1289.5487"
       r="0" />
    <circle
       id="path58"
       style="fill:#696969;stroke:#edff00;stroke-width:0.264583"
       cx="517.70203"
       cy="1228.3657"
       r="0" />
    <circle
       id="path59"
       style="fill:#696969;stroke:#edff00;stroke-width:0.264583"
       cx="517.70203"
       cy="1228.3657"
       r="0" />
    <circle
       id="path61"
       style="fill:#696969;stroke:#edff00;stroke-width:0.264583"
       cx="1545.1243"
       cy="337.73209"
       r="0" />
    <g
       id="g66"
       transform="matrix(1.1818093,0,0,1.1818093,-46.217651,17.780945)">
      <g
         id="g67">
        <path
           style="fill:#ffd700;stroke:#edff00;stroke-width:0"
           id="path27"
           d="m 135.52078,307.35608 c 22.18938,0 44.37876,0 66.56814,0 14.02231,0 28.04462,0 42.06692,0 3.96949,0 7.93898,0 11.90847,0 2.41589,0 4.83179,0 7.24768,0 2.43569,0 4.87137,0 7.30704,0 2.00798,0 4.01598,0 6.02396,0 2.06729,0 4.13459,0 6.20188,0 1.45341,0 2.90679,0 4.3602,0 35.35535,0 35.35535,-50.00001 0,-50.00001 v 0 c -1.45341,0 -2.90679,0 -4.3602,0 -2.06729,0 -4.13459,0 -6.20188,0 -2.00798,0 -4.01598,0 -6.02396,0 -2.43567,0 -4.87135,0 -7.30704,0 -2.41589,0 -4.83179,0 -7.24768,0 -3.96949,0 -7.93898,0 -11.90847,0 -14.0223,0 -28.04461,0 -42.06692,0 -22.18938,0 -44.37876,0 -66.56814,0 -35.35534,0 -35.35534,50.00001 0,50.00001 z" />
        <path
           style="fill:#ffd700;stroke:#edff00;stroke-width:0"
           id="path33"
           d="m 122.11872,602.60796 c 18.54903,0 37.09806,0 55.64708,0 23.31145,0 46.62289,0 69.93432,0 7.22924,0 14.45845,0 21.68768,0 1.72181,0 3.44363,0 5.16546,0 2.51048,0 5.02097,0 7.53147,0 2.00322,0 4.00646,0 6.00967,0 35.35534,0 35.35534,-50.00001 0,-50.00001 v 0 c -2.00321,0 -4.00645,0 -6.00967,0 -2.5105,0 -5.02099,0 -7.53147,0 -1.72183,0 -3.44365,0 -5.16546,0 -7.22923,0 -14.45844,0 -21.68768,0 -23.31143,0 -46.62287,0 -69.93432,0 -18.54902,0 -37.09805,0 -55.64708,0 -35.355343,0 -35.355343,50.00001 0,50.00001 z" />
        <path
           style="fill:#ffd700;stroke:#edff00;stroke-width:0"
           id="path42"
           d="m 91.667996,284.66285 c 0,17.43236 0,34.8647 0,52.29706 0,18.434 0,36.868 0,55.30202 0,12.26675 0,24.53352 0,36.80026 0,9.7763 0,19.55263 0,29.32893 0,7.59799 0,15.19598 0,22.79396 0,6.25377 0,12.50754 0,18.76131 0,6.86644 0,13.73291 0,20.59935 0,6.4176 0,12.8352 0,19.2528 0,5.56075 0,11.12147 0,16.68222 0,2.61528 0,5.23052 0,7.84577 0,2.03724 0,4.07448 0,6.11169 0,1.45325 0,2.9065 0,4.35975 0,35.35532 50.000004,35.35532 50.000004,0 v 0 c 0,-1.45325 0,-2.9065 0,-4.35975 0,-2.03721 0,-4.07445 0,-6.11169 0,-2.61525 0,-5.23049 0,-7.84577 0,-5.56075 0,-11.12147 0,-16.68222 0,-6.4176 0,-12.8352 0,-19.2528 0,-6.86644 0,-13.73291 0,-20.59935 0,-6.25377 0,-12.50754 0,-18.76131 0,-7.59798 0,-15.19597 0,-22.79396 0,-9.7763 0,-19.55263 0,-29.32893 0,-12.26674 0,-24.53351 0,-36.80026 0,-18.43402 0,-36.86802 0,-55.30202 0,-17.43236 0,-34.8647 0,-52.29706 0,-35.35533 -50.000004,-35.35533 -50.000004,0 z" />
        <path
           style="fill:#ffd700;stroke:#edff00;stroke-width:0"
           id="path45"
           d="m 273.87997,292.34321 c 0,12.41933 0,24.83868 0,37.25804 -0.39512,11.962 -1.81073,23.78805 -3.89064,35.5592 -1.23543,4.96091 -3.71806,9.18366 -5.67554,13.99096 -3.13004,6.14055 -4.88871,12.92357 -7.15512,19.4219 -2.22029,7.80214 -5.77164,15.0781 -9.07281,22.45143 -2.81796,5.65898 -6.03834,11.2422 -10.22439,16.00597 -3.76685,4.91534 -7.9587,9.45089 -12.14628,13.98568 -2.58302,2.85065 -5.63567,5.16996 -8.60556,7.60551 0.22665,-0.21675 0.96516,-0.78076 0.67997,-0.6503 -3.71926,1.70172 -7.17111,4.60886 -10.64149,6.79426 -2.99997,2.03063 -6.08807,3.21951 -9.70411,4.20661 -6.18817,1.62142 -12.35803,3.46814 -18.41855,5.52514 -5.94675,2.44404 -11.03236,5.53754 -15.68895,8.26288 -1.04931,0.37727 -11.05922,6.75505 -6.9657,4.12219 -4.72561,2.41892 -9.46448,4.68108 -14.01065,7.43563 -0.23877,-0.0694 0.64493,-0.64211 0.85383,-0.70262 -5.13931,0.25855 -7.87573,-1.55181 11.87581,3.20622 -30.3064,-18.20775 -56.056054,24.65197 -25.74965,42.85972 v 0 c 9.45499,2.58268 12.11699,4.58705 19.79746,3.58193 6.82286,-0.96216 13.48072,-2.74132 19.42706,-6.36209 0.0319,-0.0206 8.204,-4.09332 5.9242,-3.41689 5.46423,-2.37363 10.43934,-5.37744 15.53035,-8.43893 -3.71152,1.28701 5.58198,-2.60395 5.74959,-3.30325 0.17484,-0.72951 -2.75468,1.18944 -2.06075,0.90448 0.89994,-0.36957 1.78594,-0.77221 2.67892,-1.15832 0.0698,-0.06 0.13966,-0.12004 0.20949,-0.18007 -1.83794,-0.16481 -0.26924,0.0214 3.68338,-1.07561 2.46949,-0.68543 4.84975,-1.67201 7.31978,-2.34138 1.57835,-0.42773 3.17205,-0.79666 4.75808,-1.19502 7.46619,-2.42625 14.92368,-5.26841 21.48567,-9.6534 5.03365,-3.19016 10.07747,-6.35677 14.97274,-9.75985 4.82424,-3.95652 9.51324,-8.03179 13.82169,-12.55154 4.58325,-5.13873 9.36629,-10.11031 13.55273,-15.59361 6.96137,-8.47522 12.95569,-17.75193 17.55216,-27.73064 3.86612,-8.69148 7.96917,-17.29877 10.65808,-26.45775 2.02504,-5.86883 3.41506,-11.626 6.26938,-17.06091 3.16296,-7.92308 7.28424,-15.4876 8.56263,-24.06333 2.56508,-14.62929 4.26977,-29.3601 4.6472,-44.2242 0,-12.41936 0,-24.83871 0,-37.25804 0,-35.35535 -50.00001,-35.35535 -50.00001,0 z" />
        <path
           style="fill:#ffd700;stroke:#edff00;stroke-width:0"
           id="path56"
           d="m 816.39235,371.29753 c -22.84534,0 -45.69068,0 -68.53602,0 -40.57904,0 -81.15808,0 -121.73712,0 -33.37274,0 -66.74549,0 -100.11826,0 -18.39438,0 -36.78877,0 -55.18316,0 -8.85823,-0.6065 -17.38082,0.80817 -25.46395,4.51067 -10.52666,0.56867 -17.92639,12.88735 -20.22909,22.48146 -0.62698,2.61231 0.0487,5.37276 0.0731,8.05913 2.70563,5.10334 4.37412,10.91044 8.11686,15.31001 7.24075,8.51141 21.11481,8.52056 31.21461,8.90966 7.99037,0.22847 15.98526,0.18825 23.97795,0.17658 7.25048,-0.0153 14.50096,-0.0254 21.75142,-0.0306 8.20809,-0.41865 16.23502,0.20378 24.36095,1.1635 22.59857,1.5394 45.04177,4.40222 67.33763,8.38068 16.20165,3.24104 32.75293,5.47989 48.4683,10.76319 8.00595,2.82959 15.98779,5.55681 24.35064,7.08949 6.68615,1.02933 13.46816,0.91395 20.21131,0.91091 14.38174,1.6456 28.81688,2.78542 43.25932,3.73832 7.63701,-0.24315 9.1268,2.82572 2.24491,-0.84545 -3.24811,-1.7327 -4.21754,-3.95507 -6.44734,-6.96942 -7.79648,3.03882 2.51746,-19.81057 -1.18166,-16.75503 -2.83665,2.34313 -5.45639,4.89025 -8.36604,7.20908 0.20045,-1.00902 -10.37699,8.42515 -10.35294,6.8036 0.006,-0.37661 0.66321,-0.35729 0.99478,-0.53594 -6.8087,2.99125 -13.6979,5.57443 -20.47486,8.67045 -9.808,4.30295 -18.89736,10.12714 -27.85575,15.95877 -12.14417,7.94938 -24.25092,15.94014 -36.50647,23.71637 -9.22962,6.34432 -19.0082,11.76449 -28.84461,17.11399 -7.70197,5.43862 -16.30079,8.53528 -24.96227,11.96965 -16.33498,6.06052 -31.24864,15.00963 -46.22829,23.75601 -15.96327,9.32635 -31.83478,18.78449 -48.05564,27.66192 -16.06912,8.90955 -32.01858,18.08544 -46.34209,29.64379 -10.28639,8.49542 -16.2932,19.27926 -18.6218,32.23397 -0.85299,9.16199 -0.53694,18.32428 0.62447,27.42655 1.27659,8.46331 4.89189,16.19369 7.78643,24.15651 1.28542,6.30801 7.09522,11.12864 9.09531,16.85084 5.08458,9.22075 11.95719,17.36656 18.4422,25.64569 9.9268,12.21269 22.89649,20.28851 37.19002,26.39743 16.38684,6.30962 33.73329,8.50532 51.10276,10.01754 16.90447,1.28969 33.8636,1.38748 50.80699,1.45574 15.38396,0.0198 30.76792,-0.0238 46.15188,-0.0419 15.82269,-0.0164 31.64538,-0.0217 47.4681,-0.0241 14.99449,-0.003 29.98898,0 44.98348,0 15.03415,-0.76901 29.97493,-2.66332 44.96853,-3.94403 7.84627,-0.35759 15.25571,-0.92845 22.77342,-3.624 8.67416,-3.33066 17.61366,-5.87592 26.42775,-8.85746 13.16707,-4.44894 22.88855,-12.5022 29.23585,-24.84429 2.81795,-6.28793 3.624,-13.13286 3.63122,-19.94787 -0.0429,-2.18829 -0.0991,-4.37602 -0.1298,-6.56455 -0.49993,-35.3518 -50.49494,-34.64478 -49.99501,0.70702 v 0 c 0.0293,2.05838 0.0721,4.11631 0.12581,6.17421 0.0806,1.87524 0.34592,-0.65463 0.97483,-1.3326 2.92981,-3.9565 7.69641,-5.15662 0.1355,-1.55548 -9.16303,3.09956 -18.4344,5.82197 -27.47786,9.22573 -2.86009,1.04695 -8.10728,2.77349 3.67324,-0.0575 0.78261,-0.18807 -1.60848,0.0652 -2.41242,0.10425 -3.74523,0.18203 -7.48821,0.4183 -11.22307,0.75435 -13.5786,1.1626 -27.11579,2.75283 -40.70746,3.76219 -14.9972,-1.6e-4 -29.99441,0 -44.99161,0 -15.83973,0.003 -31.67946,0.008 -47.51916,0.0241 -15.29784,0.018 -30.5957,0.0613 -45.89354,0.0423 -15.58941,-0.0617 -31.19369,-0.12513 -46.74971,-1.27458 -12.29373,-1.02632 -24.59381,-2.2484 -36.29374,-6.42128 -6.48838,-2.46012 -12.27325,-5.78358 -16.92418,-11.04606 -4.07712,-5.18168 -7.82103,-10.64099 -12.27608,-15.50982 -2.28936,-4.65522 -4.84259,-8.96814 -7.63402,-13.28651 -1.85558,-5.05335 -4.2767,-9.85541 -5.41208,-15.12202 -0.3647,-3.75105 -0.46178,-8.36848 -0.42117,-12.5009 -1.47301,3.61487 -2.29475,2.57744 0.95531,-0.49718 11.46103,-9.99889 25.56743,-16.48693 38.48539,-24.31417 16.61951,-9.1044 32.89866,-18.77383 49.25327,-28.33929 12.81089,-7.48011 25.46845,-15.30805 39.45993,-20.46033 10.51999,-4.17862 21.0615,-8.22418 30.52204,-14.58198 10.74669,-5.90852 21.49089,-11.85225 31.63256,-18.75912 12.44324,-7.89765 24.73862,-16.0083 37.06979,-24.07915 6.95756,-4.57075 13.99773,-9.22406 21.65315,-12.50693 0.47924,-0.23418 21.11664,-8.76922 13.43007,-6.00752 9.84147,-3.33658 18.67847,-8.4314 26.56895,-15.25929 11.67427,-9.43451 24.50217,-20.28822 26.00473,-36.51721 0.41215,-4.45161 -1.39705,-8.83147 -2.09555,-13.24721 -1.74056,-2.87266 -3.14423,-5.97871 -5.22168,-8.61804 -7.83429,-9.95304 -21.08436,-12.63038 -32.97214,-13.126 -15.54678,-1.01981 -31.04735,-2.5268 -46.56876,-3.84617 -3.98867,0.003 -7.9984,0.10501 -11.97636,-0.23259 -5.99535,-0.30465 -11.43233,-4.34893 -17.26734,-5.37216 -17.98543,-5.62811 -36.51004,-9.10182 -55.0445,-12.39342 -23.24854,-4.08657 -46.63305,-7.24575 -70.19547,-8.80185 -10.07327,-1.18686 -20.10611,-1.90825 -30.25505,-1.50775 -7.26265,0.005 -14.52528,0.0153 -21.78791,0.0306 -7.35827,0.0109 -14.71842,0.0505 -22.07484,-0.14311 -10.27552,-0.34896 2.30764,0.0989 -5.76969,-0.24141 -0.32134,-0.0135 -1.20862,-0.22489 -0.96475,-0.0151 0.49741,0.42773 1.26767,0.39542 1.81948,0.75018 10.48819,6.74258 6.45838,4.05156 13.29746,18.51511 -0.19042,6.44218 0.47006,10.82538 -4.86328,16.57951 -7.92816,8.55369 -20.79017,10.92192 -3.23549,4.85928 1.52681,-0.82288 -3.48908,-0.0518 -5.19739,0.24808 -0.82018,0.14396 1.66542,0 2.49814,0 2.29137,0 4.58272,0 6.87409,0 18.39439,0 36.78878,0 55.18316,0 33.37277,0 66.74552,0 100.11826,0 40.57904,0 81.15808,0 121.73712,0 22.84534,0 45.69068,0 68.53602,0 35.35535,0 35.35535,-50.00001 0,-50.00001 z" />
        <path
           style="fill:#ffd700;stroke:#edff00;stroke-width:0"
           id="path63"
           d="m 471.63317,240.30421 c 16.18351,0 32.36701,0 48.55054,0 22.93181,-0.13383 45.86896,0.40819 68.78532,-0.52763 18.04421,-1.07865 36.07022,-2.434 54.12951,-3.24437 7.7592,-0.33145 15.52411,-0.45565 23.28955,-0.4778 15.13721,0.16931 30.20452,-1.65481 45.30297,-2.57026 19.30281,-1.07947 38.63565,-1.38411 57.96391,-1.56854 11.0872,-0.0878 22.17478,-0.0917 33.26222,-0.0773 3.95764,0.007 7.91528,0.0161 11.87292,0.0203 3.1387,0.002 6.27739,0.002 9.41609,0.003 1.31101,-1e-5 0.69924,10e-6 1.83537,-4e-5 35.35534,-0.001 35.35351,-50.00128 -0.003,-49.99999 v 0 c -1.13427,4e-5 -0.52345,2e-5 -1.83243,3e-5 -3.12166,-7e-5 -6.24329,-1.9e-4 -9.36492,-0.002 -3.95341,-0.004 -7.90681,-0.0131 -11.86021,-0.0202 -11.26861,-0.0146 -22.53737,-0.0103 -33.80571,0.0795 -20.18279,0.19373 -40.37015,0.52185 -60.52582,1.65878 -14.13867,0.86513 -28.24199,2.59632 -42.4104,2.47795 -8.46612,0.0258 -16.9317,0.16431 -25.39088,0.52819 -18.01849,0.81399 -36.00622,2.12931 -54.00794,3.23905 -22.20206,0.99221 -44.4388,0.26172 -66.65772,0.48233 -16.18353,0 -32.36703,0 -48.55054,0 -35.35534,0 -35.35534,50 0,50 z" />
        <path
           style="fill:#ffd700;stroke:#edff00;stroke-width:0"
           id="path64"
           d="m 483.64586,78.317189 c -10.09431,19.813587 -21.99418,38.625991 -33.79047,57.452291 -18.6818,29.32026 -34.88243,60.11019 -51.46363,90.64262 -10.30938,18.25844 -20.44234,36.61391 -30.93881,54.76533 -6.07044,11.07366 -12.1444,22.17108 -18.64117,33.0022 -0.85124,1.55678 -1.72169,3.10322 -2.55375,4.67032 -2.17215,4.09106 -4.13168,8.33392 -5.47169,12.77953 -1.12845,3.74367 -1.61875,6.96275 -1.07612,3.66374 0.57415,-3.15857 -3.19955,6.42879 -3.11422,6.35275 4.89463,-4.36338 9.17138,-9.374 13.75709,-14.06099 -32.90176,12.94119 -14.60013,59.47129 18.30162,46.5301 v 0 c 15.64405,-15.45238 11.75946,-8.61293 17.49402,-20.28907 1.69346,-4.85783 2.79857,-9.6801 5.63313,-14.08128 6.53685,-11.05017 12.84378,-22.24744 18.95526,-33.53771 10.71967,-18.53809 21.073,-37.28191 31.59368,-55.93364 16.08704,-29.62405 31.77678,-59.51334 49.89893,-87.96308 11.95563,-19.09516 24.0982,-38.15364 34.29077,-58.26832 18.19018,-30.316955 -24.68446,-56.041741 -42.87464,-25.724791 z" />
      </g>
    </g>
    <circle
       id="path65"
       style="fill:#696969;stroke:#edff00;stroke-width:0.264583"
       cx="1203.1707"
       cy="363.06198"
       r="0" />
  </g>
</svg>
